<svg width="24" height="25" viewBox="0 0 24 25" fill="none" xmlns="http://www.w3.org/2000/svg">
<path d="M12 3.14371C15.204 3.14371 15.584 3.15571 16.85 3.21371C20.102 3.36171 21.621 4.90471 21.769 8.13271C21.827 9.39771 21.838 9.77771 21.838 12.9817C21.838 16.1867 21.826 16.5657 21.769 17.8307C21.62 21.0557 20.105 22.6017 16.85 22.7497C15.584 22.8077 15.206 22.8197 12 22.8197C8.796 22.8197 8.416 22.8077 7.151 22.7497C3.891 22.6007 2.38 21.0507 2.232 17.8297C2.174 16.5647 2.162 16.1857 2.162 12.9807C2.162 9.77671 2.175 9.39771 2.232 8.13171C2.381 4.90471 3.896 3.36071 7.151 3.21271C8.417 3.15571 8.796 3.14371 12 3.14371ZM12 0.980713C8.741 0.980713 8.333 0.994713 7.053 1.05271C2.695 1.25271 0.273 3.67071 0.073 8.03271C0.014 9.31371 0 9.72171 0 12.9807C0 16.2397 0.014 16.6487 0.072 17.9287C0.272 22.2867 2.69 24.7087 7.052 24.9087C8.333 24.9667 8.741 24.9807 12 24.9807C15.259 24.9807 15.668 24.9667 16.948 24.9087C21.302 24.7087 23.73 22.2907 23.927 17.9287C23.986 16.6487 24 16.2397 24 12.9807C24 9.72171 23.986 9.31371 23.928 8.03371C23.732 3.67971 21.311 1.25371 16.949 1.05371C15.668 0.994713 15.259 0.980713 12 0.980713ZM12 6.81871C8.597 6.81871 5.838 9.57771 5.838 12.9807C5.838 16.3837 8.597 19.1437 12 19.1437C15.403 19.1437 18.162 16.3847 18.162 12.9807C18.162 9.57771 15.403 6.81871 12 6.81871ZM12 16.9807C9.791 16.9807 8 15.1907 8 12.9807C8 10.7717 9.791 8.98071 12 8.98071C14.209 8.98071 16 10.7717 16 12.9807C16 15.1907 14.209 16.9807 12 16.9807ZM18.406 5.13571C17.61 5.13571 16.965 5.78071 16.965 6.57571C16.965 7.37071 17.61 8.01571 18.406 8.01571C19.201 8.01571 19.845 7.37071 19.845 6.57571C19.845 5.78071 19.201 5.13571 18.406 5.13571Z" fill="#1E1E1E"/>
</svg>
